<svg width="400" height="400" viewBox="0 0 400 400" xmlns="http://www.w3.org/2000/svg" xmlns:xlink="http://www.w3.org/1999/xlink" fill="none" overflow="hidden"><path d="M136.444 221.556C123.558 225.213 115.104 231.625 109.535 238.032 114.869 233.364 122.014 229.08 131.652 226.348 141.51 223.554 149.92 223.574 156.869 224.915L156.869 219.481C150.941 218.939 144.145 219.371 136.444 221.556ZM108.946 175.876 61.0895 188.484C61.0895 188.484 61.9617 189.716 63.5767 191.36L104.153 180.668C104.153 180.668 103.578 188.077 98.5847 194.705 108.03 187.559 108.946 175.876 108.946 175.876ZM149.005 288.347C81.6582 306.486 46.0272 228.438 35.2396 187.928 30.2556 169.229 28.0799 155.067 27.5 145.928 27.4377 144.979 27.4665 144.179 27.5336 143.446 24.04 143.657 22.3674 145.473 22.7077 150.721 23.2876 159.855 25.4633 174.016 30.4473 192.721 41.2301 233.225 76.8659 311.273 144.213 293.134 158.872 289.185 169.885 281.992 178.152 272.81 170.532 279.692 160.995 285.112 149.005 288.347ZM161.661 128.11 161.661 132.903 188.077 132.903C187.535 131.206 186.989 129.677 186.447 128.11L161.661 128.11Z" fill="#2D4552"/><path d="M193.981 167.584C205.861 170.958 212.144 179.287 215.465 186.658L228.711 190.42C228.711 190.42 226.904 164.623 203.57 157.995 181.741 151.793 168.308 170.124 166.674 172.496 173.024 167.972 182.297 164.268 193.981 167.584ZM299.422 186.777C277.573 180.547 264.145 198.916 262.535 201.255 268.89 196.736 278.158 193.031 289.837 196.362 301.698 199.741 307.976 208.06 311.307 215.436L324.572 219.212C324.572 219.212 322.736 193.41 299.422 186.777ZM286.262 254.795 176.072 223.99C176.072 223.99 177.265 230.038 181.842 237.869L274.617 263.805C282.255 259.386 286.262 254.795 286.262 254.795ZM209.867 321.102C122.618 297.71 133.166 186.543 147.284 133.865 153.097 112.156 159.073 96.0203 164.029 85.204 161.072 84.5953 158.623 86.1529 156.203 91.0746 150.941 101.747 144.212 119.124 137.7 143.45 123.586 196.127 113.038 307.29 200.283 330.682 241.406 341.699 273.442 324.955 297.323 298.659 274.655 319.19 245.714 330.701 209.867 321.102Z" fill="#2D4552"/><path d="M161.661 262.296 161.661 239.863 99.3324 257.537C99.3324 257.537 103.938 230.777 136.444 221.556 146.302 218.762 154.713 218.781 161.661 220.123L161.661 128.11 192.869 128.11C189.471 117.61 186.184 109.526 183.423 103.909 178.856 94.612 174.174 100.775 163.545 109.665 156.059 115.919 137.139 129.261 108.668 136.933 80.1966 144.61 57.179 142.574 47.5752 140.911 33.9601 138.562 26.8387 135.572 27.5049 145.928 28.0847 155.062 30.2605 169.224 35.2445 187.928 46.0272 228.433 81.663 306.481 149.01 288.342 166.602 283.602 179.019 274.233 187.626 262.291L161.661 262.291 161.661 262.296ZM61.0848 188.484 108.946 175.876C108.946 175.876 107.551 194.288 89.6087 199.018 71.6614 203.743 61.0848 188.484 61.0848 188.484Z" fill="#E2574C"/><path d="M341.786 129.174C329.345 131.355 299.498 134.072 262.612 124.185 225.716 114.304 201.236 97.0224 191.537 88.8994 177.788 77.3834 171.74 69.3802 165.788 81.4857 160.526 92.163 153.797 109.54 147.284 133.866 133.171 186.543 122.623 297.706 209.867 321.098 297.093 344.47 343.53 242.92 357.644 190.238 364.157 165.917 367.013 147.5 367.799 135.625 368.695 122.173 359.455 126.078 341.786 129.174ZM166.497 172.756C166.497 172.756 180.246 151.372 203.565 158 226.899 164.628 228.706 190.425 228.706 190.425L166.497 172.756ZM223.42 268.713C182.403 256.698 176.077 223.99 176.077 223.99L286.262 254.796C286.262 254.791 264.021 280.578 223.42 268.713ZM262.377 201.495C262.377 201.495 276.107 180.126 299.422 186.773 322.736 193.411 324.572 219.208 324.572 219.208L262.377 201.495Z" fill="#2EAD33"/><path d="M139.88 246.04 99.3324 257.532C99.3324 257.532 103.737 232.44 133.607 222.496L110.647 136.33 108.663 136.933C80.1918 144.611 57.1742 142.574 47.5704 140.911 33.9554 138.563 26.834 135.572 27.5001 145.929 28.08 155.063 30.2557 169.224 35.2397 187.929 46.0225 228.433 81.6583 306.481 149.005 288.342L150.989 287.719 139.88 246.04ZM61.0848 188.485 108.946 175.876C108.946 175.876 107.551 194.288 89.6087 199.018 71.6615 203.743 61.0848 188.485 61.0848 188.485Z" fill="#D65348"/><path d="M225.27 269.163 223.415 268.712C182.398 256.698 176.072 223.99 176.072 223.99L232.89 239.872 262.971 124.281 262.607 124.185C225.711 114.304 201.232 97.0224 191.532 88.8994 177.783 77.3834 171.735 69.3802 165.783 81.4857 160.526 92.163 153.797 109.54 147.284 133.866 133.171 186.543 122.623 297.706 209.867 321.097L211.655 321.5 225.27 269.163ZM166.497 172.756C166.497 172.756 180.246 151.372 203.565 158 226.899 164.628 228.706 190.425 228.706 190.425L166.497 172.756Z" fill="#1D8D22"/><path d="M141.946 245.451 131.072 248.537C133.641 263.019 138.169 276.917 145.276 289.195 146.513 288.922 147.74 288.687 149 288.342 152.302 287.451 155.364 286.348 158.312 285.145 150.371 273.361 145.118 259.789 141.946 245.451ZM137.7 143.451C132.112 164.307 127.113 194.326 128.489 224.436 130.952 223.367 133.554 222.371 136.444 221.551L138.457 221.101C136.003 188.939 141.308 156.165 147.284 133.866 148.799 128.225 150.318 122.978 151.832 118.085 149.393 119.637 146.767 121.228 143.776 122.867 141.759 129.093 139.722 135.898 137.7 143.451Z" fill="#C04B41"/></svg>