<svg id="Capa_1" enable-background="new 0 0 511.998 511.998" height="512" viewBox="0 0 511.998 511.998" width="512" xmlns="http://www.w3.org/2000/svg"><g><path d="m384.066 181.715-38.058 8.617 9.17-25.124h22.444c5.37 0 9.31 5.046 8.007 10.256z" fill="#f5ebcd"/><path d="m355.178 173.462v-8.254h-14.19c-5.37 0-9.31 5.046-8.007 10.256l13.944 55.774h24.761l12.381-49.522h-20.634c-4.559-.001-8.255-3.696-8.255-8.254z" fill="#f4dbb3"/><path d="m476.694 280.76 10.573 116.298c.395 4.288 3.99 7.508 8.213 7.508.25 0 .5-.012.758-.032 4.538-.415 7.883-4.429 7.472-8.967l-10.438-114.807z" fill="#5d5360"/><path d="m458.317 264.253c3.989 0 7.407-2.853 8.121-6.777l12.641-69.534c1.544-8.493 9.061-15.123 17.666-14.435.535.043 1.061.11 1.576.2l-10.321 115.626-91.556-.333v-24.746h61.873z" fill="#db4655"/><path d="m498.32 173.706c9.016 1.591 15.047 10.216 13.409 19.217l-16.507 90.791c-1.427 7.849-8.263 13.553-16.24 13.553h-82.539c-9.117 0-16.507-7.391-16.507-16.507h83.253c7.856 0 14.624-5.537 16.18-13.237z" fill="#bd4150"/><path d="m105.012 280.76 10.573 116.298c.395 4.288 3.99 7.508 8.213 7.508.25 0 .5-.012.758-.032 4.538-.415 7.883-4.429 7.472-8.967l-10.437-114.807z" fill="#5d5360"/><path d="m35.304 280.76-10.573 116.298c-.395 4.288-3.99 7.508-8.213 7.508-.25 0-.5-.012-.758-.032-4.538-.415-7.883-4.429-7.472-8.967l10.437-114.807z" fill="#5d5360"/><path d="m53.681 264.253c-3.989 0-7.407-2.853-8.121-6.777l-12.64-69.535c-1.544-8.493-9.061-15.123-17.666-14.435-.535.043-1.061.11-1.576.2l10.321 115.626 91.556-.333v-24.746z" fill="#db4655"/><path d="m13.678 173.706c-9.016 1.591-15.047 10.216-13.409 19.217l16.507 90.791c1.427 7.849 8.263 13.553 16.24 13.553h82.539c9.117 0 16.507-7.391 16.507-16.507h-83.254c-7.856 0-14.624-5.537-16.18-13.237z" fill="#bd4150"/><path d="m177.723 181.715-38.058 8.617 9.17-25.124h22.444c5.37 0 9.31 5.046 8.007 10.256z" fill="#f5ebcd"/><path d="m148.835 173.462v-8.254h-14.19c-5.37 0-9.31 5.046-8.007 10.256l13.944 55.774h24.761l12.381-49.522h-20.634c-4.559-.001-8.255-3.696-8.255-8.254z" fill="#f4dbb3"/><path d="m406.989 280.76-10.573 116.298c-.395 4.288-3.99 7.508-8.213 7.508-.25 0-.5-.012-.758-.032-4.538-.415-7.883-4.429-7.472-8.967l10.437-114.806h16.579z" fill="#5d5360"/><path d="m247.88 355.044h16.507v41.269h-16.507z" fill="#5d5360"/><path d="m305.656 404.566h-99.045c-4.562 0-8.254-3.696-8.254-8.254s3.692-8.254 8.254-8.254h99.045c4.562 0 8.254 3.696 8.254 8.254s-3.692 8.254-8.254 8.254z" fill="#6f6571"/><path d="m280.895 132.193c0 3.618-.776 7.055-2.171 10.154-3.877 8.612-12.533 11.027-22.59 11.027-13.675 0-19.885-7.506-19.885-21.181 0-10.041 1.1-18.686 9.69-22.572 3.109-1.406 6.56-2.189 10.194-2.189 13.676 0 24.762 11.086 24.762 24.761z" fill="#b3e59f"/><path d="m276.448 156.954h-20.314l-11.468 16.711 9.333 20.333 24.145-12.284 5.847-13.155c2.425-5.457-1.57-11.605-7.543-11.605z" fill="#f4dbb3"/><path d="m256.134 169.641v-12.687h-20.315c-5.973 0-9.968 6.148-7.542 11.606l27.857 62.678 22.01-49.522h-9.936c-6.669-.001-12.074-5.406-12.074-12.075z" fill="#eac89f"/><path d="m413.698 205.655c-.422-4.219-3.972-7.433-8.213-7.433h-289.414l-12.072 13.776-8.842 140c10.529-4.56 14.452-14.154 30.963-14.154 21.657 0 21.657 16.507 43.315 16.507s21.658-16.507 43.315-16.507c21.663 0 21.663 16.507 43.326 16.507 21.652 0 21.652-16.507 43.303-16.507 21.67 0 21.67 16.507 43.341 16.507 21.685 0 21.685-16.507 43.37-16.507 16.542 0 20.466 9.606 31.022 14.162l10.687-5.325z" fill="#e5646e"/><path d="m268.514 144.574c-13.675 0-24.761-11.086-24.761-24.761 0-3.629.784-7.086 2.186-10.191-8.598 3.883-14.567 12.525-14.567 22.572 0 13.675 11.086 24.761 24.761 24.761 10.047 0 18.708-6.01 22.59-14.607-3.104 1.401-6.58 2.226-10.209 2.226z" fill="#95d6a4"/><path d="m126.12 346.79c21.657 0 21.657 16.507 43.314 16.507 21.658 0 21.658-16.507 43.315-16.507 21.663 0 21.663 16.507 43.326 16.507 21.652 0 21.652-16.507 43.303-16.507 21.67 0 21.67 16.507 43.341 16.507 21.685 0 21.685-16.507 43.371-16.507 16.542 0 20.465 9.606 31.022 14.162 5.671 2.448 11.877-2.371 11.262-8.517l-.575-5.753c-3.985-.29-5.915-1.645-10.025-4.774-6.082-4.63-15.273-11.626-31.684-11.626s-25.602 6.996-31.684 11.626c-4.666 3.552-6.412 4.881-11.686 4.881-5.264 0-7.008-1.328-11.668-4.878-6.079-4.631-15.267-11.629-31.673-11.629-16.401 0-25.583 7.001-31.66 11.633-4.652 3.547-6.392 4.874-11.644 4.874-5.259 0-7.001-1.328-11.658-4.876-6.078-4.632-15.264-11.631-31.669-11.631-16.402 0-25.587 7-31.664 11.632-4.654 3.548-6.396 4.875-11.651 4.875s-6.996-1.327-11.651-4.875c-6.077-4.632-15.262-11.632-31.664-11.632-.107 0-.214 0-.321.001-12.261.069-22.086-9.969-20.851-22.167l11.123-109.893h-9.289c-4.24 0-7.791 3.213-8.212 7.432l-14.675 146.773c-.615 6.148 5.595 10.971 11.265 8.516 10.528-4.56 14.452-14.154 30.962-14.154z" fill="#db4655"/></g></svg>