<?xml version="1.0" encoding="iso-8859-1"?>
<!-- Generator: Adobe Illustrator 19.0.0, SVG Export Plug-In . SVG Version: 6.00 Build 0)  -->
<svg version="1.1" id="Capa_1" xmlns="http://www.w3.org/2000/svg" xmlns:xlink="http://www.w3.org/1999/xlink" x="0px" y="0px"
	 viewBox="0 0 512 512" style="enable-background:new 0 0 512 512;" xml:space="preserve">
<path style="fill:#F9E78D;" d="M457.178,512H54.822c-16.612,0-30.079-13.467-30.079-30.079V441.14
	c0-16.612,13.467-30.079,30.079-30.079h402.356c16.612,0,30.079,13.467,30.079,30.079v40.781
	C487.257,498.533,473.79,512,457.178,512z"/>
<path style="fill:#E68392;" d="M321.522,100.435H190.478c-33.875,0-62.413,25.302-66.471,58.933L93.639,411.06h324.723
	l-30.368-251.693C383.935,125.736,355.397,100.435,321.522,100.435z"/>
<ellipse style="opacity:0.15;fill:#8D4330;enable-background:new    ;" cx="235.59" cy="271.27" rx="55.985" ry="95.77"/>
<ellipse style="fill:#F8B8BD;" cx="311.99" cy="271.27" rx="55.985" ry="95.77"/>
<path style="opacity:0.15;fill:#8D4330;enable-background:new    ;" d="M395.902,411.06
	c-107.344-45.375-234.37-195.856-212.912-310.192c-30.509,3.409-55.229,27.38-58.984,58.5L93.638,411.06H395.902z"/>
<polygon style="fill:#7397DA;" points="106.585,303.76 405.415,303.76 397.574,238.771 114.426,238.771 "/>
<path style="opacity:0.15;fill:#003A63;enable-background:new    ;" d="M114.426,238.771l-7.841,64.989h151.872
	c-17.213-20.459-32.572-42.423-45.012-64.989L114.426,238.771L114.426,238.771z"/>
<g>
	<path style="fill:#E68392;" d="M256,65.111c-4.143,0-7.5-3.358-7.5-7.5V7.5c0-4.142,3.357-7.5,7.5-7.5s7.5,3.358,7.5,7.5v50.111
		C263.5,61.753,260.143,65.111,256,65.111z"/>
	<path style="fill:#E68392;" d="M89.601,110.527c-1.919,0-3.839-0.732-5.304-2.197L51.001,75.035
		c-2.93-2.929-2.93-7.677-0.001-10.606c2.93-2.929,7.678-2.93,10.607,0l33.296,33.296c2.93,2.929,2.93,7.677,0.001,10.606
		C93.439,109.795,91.52,110.527,89.601,110.527z"/>
	<path style="fill:#E68392;" d="M422.399,110.527c-1.92,0-3.839-0.732-5.304-2.197c-2.929-2.929-2.929-7.678,0.001-10.606
		l33.296-33.296c2.931-2.93,7.679-2.929,10.607,0c2.929,2.929,2.929,7.678-0.001,10.606l-33.296,33.296
		C426.238,109.795,424.318,110.527,422.399,110.527z"/>
</g>
<path style="opacity:0.15;fill:#8D4330;enable-background:new    ;" d="M54.822,411.06c-16.612,0-30.079,13.467-30.079,30.079
	v40.781c0,16.613,13.467,30.08,30.079,30.08h291.492c-56.224-20.425-74.264-76.948-69.169-100.94H54.822z"/>
<g>
</g>
<g>
</g>
<g>
</g>
<g>
</g>
<g>
</g>
<g>
</g>
<g>
</g>
<g>
</g>
<g>
</g>
<g>
</g>
<g>
</g>
<g>
</g>
<g>
</g>
<g>
</g>
<g>
</g>
</svg>
