<?xml version="1.0" encoding="iso-8859-1"?>
<!-- Generator: Adobe Illustrator 19.0.0, SVG Export Plug-In . SVG Version: 6.00 Build 0)  -->
<svg version="1.1" id="Capa_1" xmlns="http://www.w3.org/2000/svg" xmlns:xlink="http://www.w3.org/1999/xlink" x="0px" y="0px"
	 viewBox="0 0 512 512" style="enable-background:new 0 0 512 512;" xml:space="preserve">
<path style="fill:#A8E5FF;" d="M294.5,474.5h-30c0-16.569-13.432-30-30-30h-30l30,60h60c8.284,0,15-6.716,15-15
	S302.784,474.5,294.5,474.5z"/>
<path style="fill:#DBF4FF;" d="M264.5,474.5h-30c0-16.569-13.432-30-30-30h-30c-16.569,0-30,13.431-30,30h-55
	c-8.284,0-15,6.716-15,15s6.716,15,15,15h175c8.284,0,15-6.716,15-15S272.784,474.5,264.5,474.5z"/>
<path style="fill:#A8E5FF;" d="M414.5,354.5h-30v30h30c8.284,0,15-6.716,15-15S422.784,354.5,414.5,354.5z"/>
<circle style="fill:#DBF4FF;" cx="384.5" cy="369.5" r="15"/>
<path style="fill:#A8E5FF;" d="M489.5,444.5c0-16.569-13.432-30-30-30h-30l30,60h30c8.284,0,15-6.716,15-15
	S497.784,444.5,489.5,444.5z"/>
<path style="fill:#DBF4FF;" d="M459.5,444.5c0-16.569-13.432-30-30-30s-30,13.431-30,30h-45c-8.284,0-15,6.716-15,15s6.716,15,15,15
	h105c8.284,0,15-6.716,15-15S467.784,444.5,459.5,444.5z"/>
<path style="fill:#60312C;" d="M362.103,67.603l-63.64,63.64c17.574,17.574,46.066,17.574,63.64,0
	C379.677,113.669,379.677,85.177,362.103,67.603z"/>
<path style="fill:#85453D;" d="M340.89,110.029c17.574-17.574,27.071-36.569,21.213-42.426c-17.574-17.574-46.066-17.574-63.64,0
	s-17.574,46.066,0,63.64C304.322,137.1,323.317,127.603,340.89,110.029z"/>
<path style="fill:#2DADE3;" d="M213.611,216.095l-53.033,53.033c17.574,17.574,46.066,17.574,63.64,0L213.611,216.095z"/>
<path style="fill:#49C9FF;" d="M203.004,247.915l10.607-31.82l-53.033-10.607c-17.574,17.574-17.574,46.066,0,63.64
	C166.436,274.987,185.431,265.49,203.004,247.915z"/>
<polygon style="fill:#FF6337;" points="287.857,163.063 231.289,191.348 203.004,247.915 224.218,269.129 245.431,247.915 "/>
<path style="fill:#4F4F4F;" d="M294.928,170.133l-7.071-7.071l-56.569,28.284l14.142,14.142c-11.716,11.716-11.716,30.711,0,42.426
	l49.497-49.497C302.739,190.607,302.739,177.945,294.928,170.133z"/>
<polygon style="fill:#FF8646;" points="266.644,141.85 181.791,184.276 160.578,205.49 203.004,247.915 287.857,163.063 "/>
<path style="fill:#4F4F4F;" d="M224.218,184.276l42.426-42.426l-7.071-7.071c-7.81-7.81-20.474-7.81-28.284,0l-49.497,49.497
	C193.507,195.992,212.502,195.992,224.218,184.276z"/>
<path d="M294.5,467h-23.253c-3.485-17.096-18.638-30-36.747-30h-60c-18.109,0-33.262,12.904-36.747,30H89.5
	C77.094,467,67,477.094,67,489.5S77.094,512,89.5,512h205c12.406,0,22.5-10.094,22.5-22.5S306.906,467,294.5,467z M294.5,497h-205
	c-4.136,0-7.5-3.364-7.5-7.5s3.364-7.5,7.5-7.5h55c4.143,0,7.5-3.357,7.5-7.5c0-12.406,10.094-22.5,22.5-22.5h60
	c12.406,0,22.5,10.094,22.5,22.5c0,4.143,3.357,7.5,7.5,7.5h30c4.136,0,7.5,3.364,7.5,7.5S298.636,497,294.5,497z"/>
<path d="M384.5,347c-12.406,0-22.5,10.094-22.5,22.5s10.094,22.5,22.5,22.5h30c12.406,0,22.5-10.094,22.5-22.5
	S426.906,347,414.5,347H384.5z M422,369.5c0,4.136-3.364,7.5-7.5,7.5h-30c-4.136,0-7.5-3.364-7.5-7.5s3.364-7.5,7.5-7.5h30
	C418.636,362,422,365.364,422,369.5z"/>
<path d="M496.453,438.099c-3.046-17.639-18.458-31.1-36.953-31.1h-30c-18.109,0-33.262,12.904-36.747,30H354.5
	c-12.406,0-22.5,10.094-22.5,22.5s10.094,22.5,22.5,22.5h135c12.406,0,22.5-10.094,22.5-22.5
	C512,449.518,505.468,441.035,496.453,438.099z M489.5,467h-135c-4.136,0-7.5-3.364-7.5-7.5s3.364-7.5,7.5-7.5h45
	c4.143,0,7.5-3.357,7.5-7.5c0-12.406,10.094-22.5,22.5-22.5h30c12.406,0,22.5,10.094,22.5,22.5c0,4.143,3.357,7.5,7.5,7.5
	c4.136,0,7.5,3.364,7.5,7.5S493.636,467,489.5,467z"/>
<path d="M330.283,151.923c14.023,0,27.207-5.461,37.124-15.377c4.865-4.866,8.56-10.462,11.113-16.433l2.948,0.79
	c0.65,0.175,1.304,0.258,1.946,0.258c3.312,0,6.342-2.21,7.239-5.561c1.072-4.002-1.302-8.114-5.303-9.186l-2.97-0.796
	c0.485-4.115,0.485-8.275,0-12.39l2.97-0.796c4.001-1.072,6.375-5.185,5.303-9.186c-1.071-4-5.183-6.378-9.186-5.303l-2.948,0.79
	c-1.608-3.761-3.669-7.372-6.194-10.745l2.153-2.153c2.929-2.93,2.929-7.678,0-10.607c-2.93-2.928-7.678-2.928-10.607,0
	l-2.146,2.146c-3.343-2.511-6.948-4.589-10.745-6.217l0.782-2.919c1.072-4.002-1.302-8.114-5.303-9.186
	c-4.003-1.076-8.114,1.302-9.186,5.303l-0.788,2.943c-2.045-0.239-4.113-0.375-6.203-0.375s-4.157,0.136-6.202,0.375l-0.788-2.943
	c-1.071-4.001-5.183-6.379-9.186-5.303c-4.001,1.071-6.375,5.184-5.303,9.186l0.782,2.918c-6.056,2.598-11.626,6.343-16.425,11.143
	c-9.917,9.916-15.378,23.1-15.378,37.123s5.461,27.207,15.377,37.124C303.076,146.462,316.26,151.923,330.283,151.923z
	 M303.768,72.906c4.711-4.712,10.459-8.006,16.726-9.689c0.028-0.007,0.056-0.009,0.084-0.017c0.048-0.013,0.093-0.031,0.14-0.045
	c3.085-0.808,6.292-1.232,9.565-1.232c3.276,0,6.485,0.425,9.571,1.234c0.046,0.013,0.089,0.031,0.135,0.043
	c0.027,0.007,0.054,0.009,0.081,0.016c6.268,1.684,12.017,4.978,16.729,9.691c14.621,14.62,14.621,38.411,0.001,53.032
	c-7.084,7.083-16.501,10.983-26.518,10.983s-19.434-3.9-26.516-10.983c-7.084-7.083-10.984-16.5-10.984-26.517
	S296.684,79.989,303.768,72.906z"/>
<path d="M132.292,347.34c1.946,0,3.866-0.757,5.306-2.196l55.347-55.347c13.818-0.141,26.789-5.577,36.577-15.363l65.608-65.609
	c17.658,15.176,39.911,23.454,63.438,23.454c26.044,0,50.528-10.142,68.943-28.557c2.929-2.93,2.929-7.678,0-10.607
	c-2.93-2.928-7.678-2.929-10.607,0.001c-15.581,15.582-36.299,24.163-58.336,24.163c-19.891,0-38.695-7.013-53.63-19.835
	c2.184-3.993,3.349-8.49,3.349-13.167c0-7.346-2.861-14.252-8.055-19.445l-7.056-7.056c-0.031-0.031-28.299-28.3-28.299-28.3
	c-5.194-5.193-12.101-8.054-19.446-8.054c-4.676,0-9.172,1.164-13.164,3.346c-27.746-32.377-26.32-81.319,4.325-111.965
	c2.929-2.929,2.929-7.677-0.001-10.606c-2.928-2.928-7.677-2.928-10.606,0c-36.227,36.229-37.902,94.094-5.079,132.359
	l-44.404,44.405c-0.027,0.027-21.217,21.218-21.217,21.218c-8.744,8.753-14.01,20.004-15.148,32.129H71.36l-26.766-77.938
	c-1.041-3.029-3.891-5.063-7.094-5.063h-30c-4.143,0-7.5,3.357-7.5,7.5s3.357,7.5,7.5,7.5h24.646l26.767,77.937
	c1.041,3.029,3.891,5.063,7.094,5.063h74.844c1.958,10.214,6.908,19.61,14.425,27.127c5.595,5.595,12.231,9.77,19.471,12.347
	l-43.969,43.97L56.74,294.568c-2.877-1.406-6.332-0.829-8.597,1.436L26.93,317.217c-2.929,2.929-2.929,7.678,0.001,10.606
	c2.928,2.928,7.677,2.929,10.606-0.001l17.427-17.428L129,346.577C130.05,347.091,131.176,347.34,132.292,347.34z M182.325,194.35
	c6.245,4.13,13.461,6.196,20.679,6.196c9.603,0,19.205-3.655,26.517-10.966l37.123-37.123l10.606,10.606l-37.123,37.123
	c-7.082,7.083-10.983,16.5-10.983,26.517c0,7.468,2.171,14.601,6.21,20.684l-11.135,11.136l-53.033-53.033L182.325,194.35z
	 M289.624,175.438c4.874,4.873,4.874,12.804,0,17.677l-43.272,43.273c-1.429-2.989-2.208-6.274-2.208-9.686
	c0-6.01,2.341-11.66,6.591-15.909l37.123-37.123L289.624,175.438z M254.27,140.081l1.768,1.768l-37.123,37.123
	c-6.909,6.911-17.227,8.354-25.587,4.376l43.265-43.266c2.36-2.361,5.5-3.661,8.839-3.661S251.909,137.72,254.27,140.081z
	 M154.897,237.309c0-7.468,2.171-14.601,6.209-20.683L213.08,268.6c-6.083,4.038-13.216,6.209-20.684,6.209
	c-0.622,0-1.242-0.015-1.859-0.045c-9.332-0.458-18.019-4.3-24.656-10.938C158.798,256.743,154.897,247.326,154.897,237.309z"/>
<g>
</g>
<g>
</g>
<g>
</g>
<g>
</g>
<g>
</g>
<g>
</g>
<g>
</g>
<g>
</g>
<g>
</g>
<g>
</g>
<g>
</g>
<g>
</g>
<g>
</g>
<g>
</g>
<g>
</g>
</svg>
