<svg id="line" height="512" viewBox="0 0 64 64" width="512" xmlns="http://www.w3.org/2000/svg"><path d="m60 13h-44a3 3 0 0 0 0 6h44a3 3 0 0 0 0-6z" fill="#c4a2fc"/><path d="m18.435 21 12.565 15.357v25.643a1 1 0 0 0 1.781.625l12-15a1 1 0 0 0 .219-.625v-10.643l12.565-15.357z" fill="#c4a2fc"/><g fill="#151a6a"><path d="m5 9a4 4 0 1 1 4-4 4 4 0 0 1 -4 4zm0-6a2 2 0 1 0 2 2 2 2 0 0 0 -2-2z"/><path d="m5 42a4 4 0 1 1 4-4 4 4 0 0 1 -4 4zm0-6a2 2 0 1 0 2 2 2 2 0 0 0 -2-2z"/><path d="m5 20a4 4 0 1 1 4-4 4 4 0 0 1 -4 4zm0-6a2 2 0 1 0 2 2 2 2 0 0 0 -2-2z"/><path d="m5 31a4 4 0 1 1 4-4 4 4 0 0 1 -4 4zm0-6a2 2 0 1 0 2 2 2 2 0 0 0 -2-2z"/><path d="m50 6h-37a1 1 0 0 1 0-2h37a1 1 0 0 1 0 2z"/><path d="m50 17h-37a1 1 0 0 1 0-2h37a1 1 0 0 1 0 2z"/><path d="m50 28h-37a1 1 0 0 1 0-2h37a1 1 0 0 1 0 2z"/><path d="m50 39h-37a1 1 0 0 1 0-2h37a1 1 0 0 1 0 2z"/></g></svg>