<svg id="Capa_1" enable-background="new 0 0 512 512" height="512" viewBox="0 0 512 512" width="512" xmlns="http://www.w3.org/2000/svg"><g><path d="m331.364 206.285c-2.95 0-5.747-1.752-6.939-4.648l-68.425-166.33-68.425 166.329c-1.576 3.83-5.958 5.659-9.79 4.083-3.831-1.576-5.658-5.958-4.083-9.79l75.362-183.189c1.157-2.811 3.896-4.646 6.936-4.646s5.779 1.835 6.936 4.646l75.361 183.189c1.576 3.831-.252 8.214-4.083 9.79-.933.384-1.899.566-2.85.566z" fill="#4e5660"/><ellipse cx="256" cy="35.373" fill="#6a95d6" rx="29.744" ry="29.744" transform="matrix(.987 -.16 .16 .987 -2.361 41.463)"/><path d="m436.125 130.729-390.111 34.131c-27.731 2.426-48.245 26.874-45.819 54.605l21.075 240.893c2.426 27.731 26.873 48.245 54.605 45.819l390.111-34.13c27.731-2.426 48.245-26.874 45.819-54.605l-21.075-240.894c-2.426-27.731-26.874-48.245-54.605-45.819z" fill="#e0b799"/><path d="m166.694 154.301-120.68 10.559c-27.731 2.426-48.245 26.874-45.819 54.605l21.075 240.893c2.426 27.731 26.873 48.245 54.605 45.819l180.449-15.787c-83.345-74.555-100.093-229.807-89.63-336.089z" fill="#d1986f"/><path d="m426.778 175.084-363.857 31.833c-11.119.973-19.344 10.775-18.372 21.895l18.779 214.638c.973 11.119 10.775 19.344 21.895 18.372l363.857-31.833c11.119-.973 19.344-10.775 18.372-21.894l-18.778-214.639c-.975-11.12-10.777-19.345-21.896-18.372z" fill="#a2ddfd"/><path d="m164.081 198.067-101.16 8.85c-11.119.973-19.345 10.775-18.372 21.894l18.779 214.639c.973 11.119 10.775 19.344 21.894 18.372l136.659-11.956c-45.216-68.917-59.726-168.503-57.8-251.799z" fill="#7acdf9"/><path d="m249.249 241.288 8.133 92.957 66.34-5.804c9.822-.859 13.702-13.165 6.149-19.503z" fill="#fff"/><path d="m250.403 254.478 6.979 79.767-53.15 4.65c-9.822.859-15.78-10.586-9.443-18.139z" fill="#fff"/><path d="m261.384 387.597c-3.847 0-7.121-2.942-7.463-6.847l-12.623-144.282c-.361-4.126 2.691-7.764 6.818-8.126 4.119-.352 7.764 2.691 8.126 6.818l12.623 144.282c.361 4.126-2.691 7.764-6.818 8.126-.222.019-.443.029-.663.029z" fill="#d1986f"/><path d="m346.145 372.681-169.504 14.83c-10.067.881-15.542 12.196-9.984 20.637l24.605 37.364c2.697 4.096 7.424 6.383 12.31 5.956l127.156-11.125c4.886-.427 9.144-3.5 11.089-8.003l17.743-41.069c4.009-9.277-3.348-19.471-13.415-18.59z" fill="#f6ee86"/><path d="m176.641 387.511c-10.067.881-15.542 12.196-9.984 20.637l24.605 37.364c2.698 4.096 7.424 6.383 12.31 5.956l18.308-1.602c-12.575-19.166-22.769-40.708-30.902-63.609z" fill="#eed076"/></g></svg>