<svg height="512pt" viewBox="0 0 512.00042 512" width="512pt" xmlns="http://www.w3.org/2000/svg"><path d="m30.304688 505.277344-23.578126-23.574219c-8.96875-8.964844-8.96875-23.503906 0-32.46875l288.300782-288.257813c8.964844-8.964843 23.5-8.964843 32.464844 0l23.578124 23.574219c8.964844 8.964844 8.964844 23.503907 0 32.46875l-288.300781 288.257813c-8.964843 8.964844-23.5 8.964844-32.464843 0zm0 0" fill="#516980"/><path d="m351.074219 184.554688-23.578125-23.578126c-8.96875-8.960937-23.503906-8.960937-32.472656 0l-62.5625 62.554688 56.046874 56.039062 62.566407-62.554687c8.964843-8.964844 8.964843-23.496094 0-32.460937zm0 0" fill="#b5e9f1"/><path d="m362.539062 147.96875c-9.394531-9.394531-9.394531-24.621094 0-34.015625l73.976563-73.964844c9.390625-9.390625 24.617187-9.390625 34.007813 0 9.394531 9.394531 9.394531 24.621094 0 34.015625l-73.976563 73.964844c-9.390625 9.390625-24.617187 9.390625-34.007813 0zm0 0" fill="#fcf5af"/><g fill="#81d9e7"><path d="m304.453125 100.773438h-.046875c-13.269531 0-24.027344-10.757813-24.027344-24.027344v-52.71875c0-13.269532 10.757813-24.027344 24.027344-24.027344h.046875c13.269531 0 24.027344 10.757812 24.027344 24.027344v52.71875c0 13.269531-10.757813 24.027344-24.027344 24.027344zm0 0"/><path d="m411.210938 207.246094c-.074219 13.28125 10.628906 24.109375 23.910156 24.1875l52.691406.304687c13.28125.078125 24.109375-10.628906 24.1875-23.910156.078125-13.277344-10.628906-24.109375-23.910156-24.183594l-52.691406-.304687c-13.28125-.078125-24.109376 10.625-24.1875 23.90625zm0 0"/><path d="m205.316406 199.871094c0-13.28125-10.765625-24.046875-24.046875-24.046875h-52.695312c-13.28125 0-24.046875 10.765625-24.046875 24.046875s10.765625 24.046875 24.046875 24.046875h52.695312c13.277344 0 24.046875-10.765625 24.046875-24.046875zm0 0"/><path d="m311.78125 306.636719h.046875c13.269531-.078125 24.089844 10.617187 24.167969 23.890625l.304687 52.714844c.078125 13.269531-10.617187 24.089843-23.886719 24.167968h-.050781c-13.269531.074219-24.085937-10.621094-24.164062-23.890625l-.304688-52.714843c-.078125-13.269532 10.617188-24.089844 23.886719-24.167969zm0 0"/></g><path d="m252.828125 148.207031c-9.394531 9.390625-24.617187 9.390625-34.011719 0l-73.976562-73.964843c-9.390625-9.394532-9.390625-24.621094 0-34.015626 9.394531-9.390624 24.617187-9.390624 34.011718 0l73.976563 73.964844c9.394531 9.394532 9.394531 24.621094 0 34.015625zm0 0" fill="#fcf5af"/><path d="m471.835938 367.183594c-9.390626 9.390625-24.617188 9.390625-34.007813 0l-73.976563-73.964844c-9.394531-9.394531-9.394531-24.621094 0-34.015625 9.390626-9.390625 24.617188-9.390625 34.007813 0l73.976563 73.964844c9.394531 9.394531 9.394531 24.621093 0 34.015625zm0 0" fill="#fcf5af"/></svg>