<svg id="Capa_1" enable-background="new 0 0 512 512" height="512" viewBox="0 0 512 512" width="512" xmlns="http://www.w3.org/2000/svg"><g><path d="m93.287 136.196h325.426v244.604h-325.426z" fill="#a2ddfd"/><path d="m298.396 380.8 120.317-120.318v-124.286h-51.29l-244.604 244.604z" fill="#7acdf9"/><path d="m436.216 380.8h-360.432c-7.349 0-13.306 5.957-13.306 13.306v20.422c0 7.349 5.957 13.306 13.306 13.306h360.432c7.349 0 13.306-5.958 13.306-13.306v-20.422c0-7.349-5.957-13.306-13.306-13.306z" fill="#f5e2a2"/><path d="m489.176 65.177h-466.352c-10.524 0-19.056 8.532-19.056 19.056v32.906c0 10.524 8.532 19.056 19.056 19.056h466.353c10.525 0 19.056-8.532 19.056-19.056v-32.906c-.001-10.524-8.532-19.056-19.057-19.056z" fill="#f5e2a2"/><g><path d="m93.287 235.861h325.427v45.274h-325.427z" fill="#fbf1cf"/><path d="m209.943 235.861h92.113v45.274h-92.113z" fill="#f5e2a2"/><path d="m233.363 136.195h45.274v244.605h-45.274z" fill="#fbf1cf"/></g><path d="m27.099 431.965c23.65 22.004 67.459 15.922 89.92 5.062 8.225-3.977 13.11-12.671 12.137-21.755-3.303-30.835-16.273-98.143-45.873-137.826 24.637-15.161 57.488-93.496 57.488-141.251h-118.134v285.468c0 3.902 1.605 7.644 4.462 10.302z" fill="#eda1ab"/><path d="m22.637 166.121h114.848c2.094-10.651 3.286-20.842 3.286-29.926h-118.134z" fill="#e16e7e"/><path d="m100.261 300.084h-77.624c-12.502 0-22.637-10.135-22.637-22.637s10.135-22.637 22.637-22.637h77.624c12.502 0 22.637 10.135 22.637 22.637s-10.135 22.637-22.637 22.637z" fill="#f5e2a2"/><path d="m484.901 431.965c-23.65 22.004-67.459 15.922-89.92 5.062-8.225-3.977-13.11-12.671-12.137-21.755 3.303-30.835 16.273-98.143 45.873-137.826-24.638-15.161-57.487-93.496-57.487-141.251h118.134v285.468c-.001 3.902-1.606 7.644-4.463 10.302z" fill="#eda1ab"/><path d="m374.515 166.121h114.848v-29.926h-118.134c0 9.084 1.191 19.275 3.286 29.926z" fill="#e16e7e"/><path d="m411.739 300.084h77.624c12.502 0 22.637-10.135 22.637-22.637s-10.135-22.637-22.637-22.637h-77.624c-12.502 0-22.637 10.135-22.637 22.637s10.135 22.637 22.637 22.637z" fill="#f5e2a2"/></g></svg>